# xmcd
#
# Track frame offsets:
#	150
#	8015
#	16792
#	27425
#	34842
#	43087
#	53212
#	61977
#	66105
#	71500
#	78832
#	88222
#	95845
#	103695
#	112310
#	122872
#	130222
#	138382
#	148437
#	157312
#	161322
#	166647
#	173820
#	183137
#
# Disc length: 2539 seconds
#
# Revision: 0
# Processed by: cddbd v1.5PL3 Copyright (c) Steve Scherf et al.
# Submitted via: dBpowerAMP V4.0
#
DISCID=5109e918
DTITLE=Rondas Infantiles - Volumen I
DYEAR=1900
DGENRE=latin
TTITLE0=Los Maderos De San Juan
TTITLE1=Matarile rile ron
TTITLE2=San Serafín
TTITLE3=Pim Pom
TTITLE4=Naranja Dulce
TTITLE5=Mambru
TTITLE6=La Víbora De La Mar
TTITLE7=La Pajara Pinta
TTITLE8=Que llueva, Que llueva
TTITLE9=En El Agua Clara
TTITLE10=Los Números
TTITLE11=A la Rueda
TTITLE12=Los Maderos de San Juan Pista
TTITLE13=Matarile rile ron Pista
TTITLE14=San Serafín Pista
TTITLE15=Pim Pon Pista
TTITLE16=Naranja Dulce Pista
TTITLE17=Mambru Pista
TTITLE18=A La Vibora De La Mar Pista
TTITLE19=La Pajara Pinta Pista
TTITLE20=Que llueva, Que llueva Pista
TTITLE21=En El Agua Clara Pista
TTITLE22=Los Números Pista
TTITLE23=A La Rueda Pista
EXTD=
EXTT0=
EXTT1=
EXTT2=
EXTT3=
EXTT4=
EXTT5=
EXTT6=
EXTT7=
EXTT8=
EXTT9=
EXTT10=
EXTT11=
EXTT12=
EXTT13=
EXTT14=
EXTT15=
EXTT16=
EXTT17=
EXTT18=
EXTT19=
EXTT20=
EXTT21=
EXTT22=
EXTT23=
PLAYORDER=
